<svg xmlns="http://www.w3.org/2000/svg" viewBox="0 0 182.167 28.667" style="enable-background:new 0 0 182.167 28.667"><path d="M32.19 5.603c0-.617.505-1.122 1.094-1.122h7.348c2.412 0 4.347.729 5.581 1.963.953.954 1.514 2.328 1.514 3.87v.056c0 3.226-2.187 5.104-5.244 5.694l4.88 6.282c.224.252.364.505.364.813 0 .589-.561 1.094-1.122 1.094-.449 0-.785-.252-1.038-.589l-5.525-7.18h-5.637v6.647c0 .617-.505 1.122-1.122 1.122-.589 0-1.094-.505-1.094-1.122V5.603zm8.246 8.891c2.945 0 5.048-1.515 5.048-4.039v-.056c0-2.412-1.851-3.871-5.02-3.871h-6.058v7.966h6.03zM52.185 22.991V5.603c0-.617.505-1.122 1.094-1.122h12.2c.561 0 1.01.449 1.01 1.01 0 .561-.449 1.01-1.01 1.01H54.4v6.702h9.816c.561 0 1.01.477 1.01 1.01 0 .561-.449 1.01-1.01 1.01H54.4v6.871h11.218c.561 0 1.01.449 1.01 1.01s-.449 1.01-1.01 1.01h-12.34c-.589-.001-1.093-.506-1.093-1.123zM77.002 23.412L69.43 5.939a1.027 1.027 0 01-.113-.505c0-.561.505-1.094 1.122-1.094.561 0 .954.365 1.15.841l6.787 16.266 6.815-16.322c.196-.393.589-.785 1.094-.785.617 0 1.094.505 1.094 1.066 0 .168-.028.308-.084.449l-7.601 17.556c-.252.561-.645.926-1.29.926h-.113c-.643 0-1.064-.365-1.289-.925zM91.472 5.462c0-.617.505-1.122 1.094-1.122.617 0 1.122.505 1.122 1.122v17.669c0 .617-.505 1.122-1.122 1.122-.589 0-1.094-.505-1.094-1.122V5.462zM99.155 22.991V5.603c0-.617.505-1.122 1.094-1.122h12.2c.561 0 1.01.449 1.01 1.01 0 .561-.449 1.01-1.01 1.01H101.37v6.702h9.816c.561 0 1.01.477 1.01 1.01 0 .561-.449 1.01-1.01 1.01h-9.816v6.871h11.218c.561 0 1.01.449 1.01 1.01s-.449 1.01-1.01 1.01h-12.34c-.588-.001-1.093-.506-1.093-1.123zM116.485 5.967c-.056-.168-.112-.336-.112-.505 0-.589.533-1.122 1.15-1.122.561 0 .982.421 1.15.925l5.413 15.594 5.132-15.65c.168-.505.505-.869 1.094-.869h.141c.561 0 .925.365 1.094.869l5.132 15.65 5.441-15.65c.168-.505.533-.869 1.066-.869.589 0 1.122.533 1.122 1.094 0 .168-.085.365-.141.533l-6.282 17.444c-.196.561-.589.954-1.15.954h-.168c-.561 0-.954-.393-1.15-.954l-5.104-15.088-5.076 15.088c-.196.561-.589.954-1.15.954h-.168c-.561 0-.954-.364-1.15-.954l-6.284-17.444zM147.079 21.757c-.252-.168-.421-.477-.421-.841 0-.617.477-1.094 1.066-1.094.28 0 .533.112.673.252 1.851 1.57 3.702 2.328 6.198 2.328 2.637 0 4.375-1.402 4.375-3.337v-.056c0-1.823-.981-2.861-5.104-3.73-4.516-.981-6.591-2.44-6.591-5.665v-.057c0-3.085 2.72-5.356 6.45-5.356 2.58 0 4.459.645 6.254 1.935.224.168.477.477.477.897 0 .589-.477 1.066-1.066 1.066-.252 0-.449-.056-.645-.196-1.655-1.206-3.253-1.711-5.076-1.711-2.552 0-4.179 1.402-4.179 3.169v.056c0 1.851 1.01 2.889 5.329 3.815 4.375.954 6.394 2.552 6.394 5.553v.057c0 3.365-2.805 5.553-6.703 5.553-2.859-.002-5.243-.899-7.431-2.638zM164.531 21.894c.423 0 .737.313.737.737v.313c0 .424-.314.753-.737.753a.734.734 0 01-.753-.753v-.313c0-.424.314-.737.753-.737zM167.795 12.969c0-.393.314-.644.706-.644.408 0 .722.251.722.644v.203c0 .377-.313.644-.722.644-.392 0-.706-.267-.706-.644v-.203zm.11 3.074a.61.61 0 01.596-.612c.346 0 .612.267.612.612v7.043a.59.59 0 01-.597.611.602.602 0 01-.611-.611v-7.043zM171.42 19.604v-.031c0-2.29 1.789-4.235 4.235-4.235 2.432 0 4.22 1.914 4.22 4.204v.031c0 2.29-1.804 4.235-4.251 4.235-2.432 0-4.204-1.914-4.204-4.204zm7.216 0v-.031c0-1.741-1.302-3.169-3.012-3.169-1.757 0-2.965 1.428-2.965 3.138v.031c0 1.741 1.286 3.152 2.996 3.152 1.757 0 2.981-1.411 2.981-3.121z"/><linearGradient id="a" gradientUnits="userSpaceOnUse" x1="14.478" y1="26.552" x2="14.478" y2="2.167"><stop offset="0" style="stop-color:#33C886"/><stop offset="1" style="stop-color:#12CF6C"/></linearGradient><path style="fill:url(#a)" d="M14.478 2.167c-6.734 0-12.192 5.459-12.192 12.192 0 6.734 5.459 12.192 12.192 12.192S26.67 21.092 26.67 14.359c.001-6.734-5.458-12.192-12.192-12.192zm5.724 20.727l-5.734-4.403-5.693 4.403 2.212-7.006-5.652-4.221h6.861l2.273-6.861 2.294 6.861h6.861l-5.632 4.241 2.21 6.986z"/></svg>