<svg width="160" height="34" viewBox="0 0 160 34" fill="none" xmlns="http://www.w3.org/2000/svg">
<path d="M26.639 8.79778V33.3759H22.5076L22.0093 30.3878C19.7525 32.6399 16.6045 33.9896 12.9741 33.9896C5.54979 33.987 0 28.453 0 21.0881C0 13.7025 5.54979 8.21265 12.9741 8.21265C16.6467 8.21265 19.8263 9.58055 22.0884 11.8717L22.6869 8.79778H26.639ZM21.5058 21.0881C21.5058 16.4565 18.0731 13.0237 13.3775 13.0237C8.68193 13.0237 5.21496 16.4851 5.21496 21.0881C5.21496 25.6886 8.67929 29.1525 13.3775 29.1525C18.0757 29.1525 21.5058 25.7198 21.5058 21.0881Z" fill="white"/>
<path d="M56.8056 0V33.3889H52.9326L52.2735 30.601C50.0325 32.7309 46.9715 34 43.4755 34C35.9405 34 30.5225 28.466 30.5225 21.0985C30.5225 13.6999 35.9405 8.21003 43.4755 8.21003C46.6736 8.21003 49.5078 9.26327 51.6829 11.0707V0H56.8056ZM43.8789 29.1629C48.5745 29.1629 52.0415 25.6677 52.0415 21.0985C52.0415 16.4981 48.5771 13.0341 43.8789 13.0341C39.1807 13.0341 35.7507 16.4669 35.7507 21.0985C35.7507 25.7301 39.1833 29.1629 43.8789 29.1629Z" fill="white"/>
<path d="M76.8955 28.7988V33.3889H73.0885C67.6309 33.3889 64.2615 30.0653 64.2615 24.6379V13.1381H59.8059V12.1603L68.472 3.07129H69.3447V8.80817H76.7584V13.1355H69.3842V24.2374C69.3842 27.1683 71.0373 28.7988 74.0534 28.7988H76.8955V28.7988Z" fill="white"/>
<path d="M95.3298 8.67294V13.445H92.6248C88.388 13.445 86.2735 15.8271 86.2735 20.2793V33.3863H81.1508V8.81077H84.6152L85.4826 12.1655C87.2648 9.8354 89.7089 8.67294 93.1126 8.67294H95.3298Z" fill="white"/>
<path d="M122.736 8.79778V33.3759H118.605L118.106 30.3878C115.85 32.6399 112.702 33.9896 109.071 33.9896C101.649 33.9896 96.097 28.4556 96.097 21.0881C96.097 13.7025 101.647 8.21265 109.071 8.21265C112.744 8.21265 115.923 9.58055 118.185 11.8717L118.784 8.79778H122.736ZM117.6 21.0881C117.6 16.4565 114.167 13.0237 109.472 13.0237C104.776 13.0237 101.309 16.4877 101.309 21.0881C101.309 25.6886 104.774 29.1525 109.472 29.1525C114.167 29.1499 117.6 25.7198 117.6 21.0881Z" fill="white"/>
<path d="M135.433 22.9033H132.328V33.3889H127.205V0H132.328V18.3133H135.47L142.196 8.80817H148.268L139.831 20.6044L149.164 33.3863H142.902L135.433 22.9033Z" fill="white"/>
<path d="M155.887 34C158.159 34 160 32.1836 160 29.9431C160 27.7025 158.159 25.8862 155.887 25.8862C153.616 25.8862 151.774 27.7025 151.774 29.9431C151.774 32.1836 153.616 34 155.887 34Z" fill="#ABE8E8"/>
</svg>
